<?xml version="1.0" encoding="utf-8"?>
<!-- Generator: Adobe Illustrator 16.0.0, SVG Export Plug-In . SVG Version: 6.00 Build 0)  -->
<!DOCTYPE svg PUBLIC "-//W3C//DTD SVG 1.1//EN" "http://www.w3.org/Graphics/SVG/1.1/DTD/svg11.dtd">
<svg version="1.1" xmlns="http://www.w3.org/2000/svg" xmlns:xlink="http://www.w3.org/1999/xlink" x="0px" y="0px"
	 width="340.16px" height="340.16px" viewBox="0 0 340.16 340.16" enable-background="new 0 0 340.16 340.16" xml:space="preserve">
<g id="Burger_King">
	<path id="path11" fill="#F79F1D" d="M250.35,55.487c0.746-1.835-0.771-3.638-0.771-3.638s-11.925-20.285-54.113-24.786
		c-22.587-2.407-53.34,2.163-74.895,13.787C81.516,61.894,75.668,96.559,75.668,96.559c-0.22,0.849-0.594,3.434,0.284,4.536
		c0.895,1.122,2.196,1.101,3.811,0.556c13.783-4.657,54.865-18.279,80.79-25.16c36.895-9.781,67.203-15.733,86.655-19.047
		C248.59,57.209,249.829,56.757,250.35,55.487"/>
	<path id="path13" fill="#1B3C6D" d="M292.479,218.864c-22.084,49.593-64.448,84.107-119.972,84.894
		c-40.432,0.574-76.113-13.278-101.882-37.439l-15.585,6.668l0.026-24.13c-16.98-22.904-26.826-51.876-26.826-84.788
		c0-84.295,64.565-150.744,154.61-150.744c14.697,0,27.98,2.288,37.997,4.556c-15.432-4.938-30.764-7.614-47.831-7.614
		c-96.64,0-161.675,78.361-161.679,159.172c0,88.064,69.084,161.828,159.763,161.828c86.609,0,133.338-61.063,148.28-97.788
		L292.479,218.864"/>
	<path id="path23" fill="#F79F1D" d="M108.203,261.208c-0.895,2.062,1.146,4.106,1.146,4.106
		c8.748,10.976,47.587,24.893,89.742,14.703c64.381-15.57,77.982-61.116,79.523-67.547c0.316-1.311,0.567-3.42-0.648-4.686
		c-1.021-1.056-2.472-1.066-4.484-0.602c-44.715,10.512-119.122,33.225-162.021,51.605
		C109.613,259.579,108.777,259.869,108.203,261.208"/>
	<g display="none">
		<path id="path15" display="inline" fill="#A21E21" d="M270.062,201.441c12.709-1.441,21.501-6.55,26.325-11.287
			c4.399-4.32,5.426-10.271,5.433-14.691c0.176-6.493,0-26.986,0-26.986l-33.633,7.276c0,0-0.002,2.536-0.013,7.857
			c0.062,5.197,2.567,8.025,8.015,7.024c1.707-0.28,4.336-1.118,4.336-1.118l0.044,6.423c-0.027-0.185,0.498,3.581-7.978,5.256
			c-11.09,1.741-16.131-5.084-16.263-17.144c0.219-12.925,7.527-20.378,16.392-22.419c9.975-2.288,15.619,0.089,18.937,0.595
			c11.141,1.667,14.299-15.033,4.165-18.95c-7.489-3.017-17.208-3.563-26.472-1.713c-12.371,2.467-36.697,12.821-36.766,46.462
			C232.652,194.758,252.36,203.469,270.062,201.441"/>
		<path id="path17" display="inline" fill="#A21E21" d="M160.739,230.094c0,0,10.32-3.54,11.211-3.854
			c8.294-2.861,11.315-7.793,11.277-16.328c-0.104-9.268-0.119-27.34-0.119-27.34l23.994,27.646
			c3.897,4.025,8.781,4.368,13.253,3.057c4.625-1.354,8.474-5.581,8.591-11.543c0.038-19.965-0.009-68.689-0.009-68.689
			s-6.201,1.316-11.349,2.775c-5.921,1.678-10.478,5.454-10.478,15.421c0,3.529-0.013,23.779-0.013,23.779
			c-27.715-34.759-30.273-33.711-22.334-25.769c-4.721-4.716-12.533-1.901-12.533-1.901l-11.512,3.484L160.739,230.094"/>
		<path id="path19" display="inline" fill="#A21E21" d="M153.475,152.618c0,0-7.227,2.12-13.106,4.243
			c-7.636,2.761-12.037,7.179-12.037,18.737c0,10.615-0.019,65.868-0.019,65.868s6.689-2.288,12.925-4.641
			c8.866-3.343,12.211-7.903,12.211-17.213C153.449,211.611,153.475,152.618,153.475,152.618"/>
		<path id="path21" display="inline" fill="#A21E21" d="M117.615,168.292c-6.633-3.013-12.326,0.347-14.743,4.062l-20.387,34.672
			l-0.036-27.952l-24.032,9.955l-0.076,79.049l16.93-7.098c0,0,3.323-0.942,5.328-4.093c1.844-2.903,1.775-7.773,1.775-7.773
			l0.021-25.065l18.921,20.077c4.154,4.314,11.788,6.529,18.523,1.089c6.091-4.918,5.147-13.304,1.75-17.059l-17.236-17.35
			c0,0,15.168-23.907,17.648-27.901C125.293,177.599,123.637,171.027,117.615,168.292"/>
		<path id="path25" display="inline" fill="#A21E21" d="M70.021,157.611c-0.059-4.357-3.446-6.734-9.3-3.796l-0.012,14.006
			c0,0,1.892-0.838,3.281-1.484C67.413,164.75,70.102,161.894,70.021,157.611 M60.606,144.951c1.042-0.407,1.809-0.75,2.684-1.177
			c3.17-1.544,5.427-4.408,5.454-8.116c0.033-4.223-3.445-5.314-8.13-2.893L60.606,144.951z M85.384,155.61
			c0.191,11.054-7.772,16.937-18.146,21.233l-21.249,9.028l-0.049-57.568c0,0,13.388-5.458,17.755-7.047
			c12.416-4.518,19.716,0.928,19.716,9.222c0,5.534-2.369,10.238-7.51,14.372C80.964,145.695,85.288,149.854,85.384,155.61z"/>
		<path id="path27" display="inline" fill="#A21E21" d="M125.722,107.021c0-4.849-3.335-6.139-7.369-4.978
			c-3.261,0.934-7.06,2.417-7.06,2.417l-0.026,35.79c-0.04,3.564-0.591,8.027-4.983,9.133c-3.371,0.85-4.965-1.399-4.968-4.958
			l-0.048-29.293c0-4.874-3.391-6.333-7.412-4.999c-4.52,1.509-7.236,2.597-7.236,2.597s0.052,25.344-0.01,35.479
			c-0.057,11.88,8.134,17.811,20.62,14.124c11.014-3.257,18.369-9.42,18.508-25.243L125.722,107.021"/>
		<path id="path29" display="inline" fill="#A21E21" d="M243.814,121.812c3.173-0.684,5.151-2.928,5.151-6.805
			c0-3.493,0.015-6.149,0.015-6.149l-17.235,3.766l0.029-10.14c0,0,8.45-1.791,10.795-2.303c2.947-0.646,4.492-2.253,4.492-5.623
			c0-3.143-0.019-5.862-0.019-5.862l-15.272,3.241l-0.004-8.041c0,0,7.939-1.657,12.218-2.556c3.332-0.701,4.434-2.984,4.434-6.125
			c0-2.046,0.031-6.095,0.031-6.095c-7.616,1.345-22.099,4.238-31.129,6.307l-0.123,52.479
			C217.197,127.906,234.369,123.862,243.814,121.812"/>
		<path id="path31" display="inline" fill="#A21E21" d="M144.214,119.692c0.012-0.01,8.527-4.409,8.433-11.385
			c-0.083-5.967-5.579-4.661-8.43-3.615L144.214,119.692 M144.236,127.788c0,0-0.028,10.05-0.043,14.105
			c-0.034,3.802-2.631,6.547-5.917,7.803c0,0.122,0-0.114,0,0c-2.748,0.942-8.586,2.952-8.586,2.952l0.022-54.04
			c0,0,12.057-4.201,19.146-5.848c11.018-2.563,18.854,2.451,18.712,11.35c-0.068,8.474-4.795,13.615-9.041,17.135l9.331,8.959
			c2.867,2.778,3.068,7.8-0.158,10.835c-1.912,1.796-7.026,3.658-11.03-0.417L144.236,127.788z"/>
		<path id="path33" display="inline" fill="#A21E21" d="M266.228,90.627c0.017,0,8.411-3.197,8.313-9.927
			c-0.085-5.692-5.691-4.662-8.335-4.071L266.228,90.627 M252.141,120.238l0.023-51.817c0,0,15.13-2.675,19.036-3.177
			c10.848-1.393,18.124,4.626,17.976,13.178c-0.058,7.52-4.781,12.046-8.799,14.76c0,0,7.379,8.313,9.355,10.512
			c2.657,2.964,2.538,8.031-1.392,10.514c-3.861,2.435-7.688,1.161-9.908-1.292l-12.18-14.284c0,0,0.038,8.785,0.029,12.622
			c-0.036,3.818-2.244,6.602-6.205,7.421L252.141,120.238z"/>
		<path id="path35" display="inline" fill="#A21E21" d="M213.806,98.489l-21.463,4.875c0,0-0.025,2.268-0.03,5.969
			c0.03,2.776,1.977,4.578,4.778,4.001c1.766-0.367,3.179-0.694,3.179-0.694l0.032,5.961c0.023,2.358-3.516,3.902-7.189,3.817
			c-5.15-0.134-8.004-4.135-8.078-11.749c0.159-10.011,4.868-15.888,11.282-17.529c3.205-0.825,6.119-0.423,8.385-0.129
			c5.529,0.893,8.713-1.772,8.826-6.343c0.114-4.895-4.226-7.921-13.545-7.599c-20.206,0.698-30.539,15.215-30.539,32.542
			c0,17.745,11.593,25.583,25.74,23.025c7.998-1.613,11.975-4.209,14.73-6.625c2.755-2.417,3.892-6.032,3.892-9.119V98.489"/>
	</g>
	<path id="path37" fill="#FFFFFF" d="M129.247,40.453c-23.669,10.448-39.649,35.319-40.528,45.847
		c-0.346,4.185,5.203,4.786,5.725,0.342C99.438,67.438,114.725,49.332,129.247,40.453"/>
	<path id="path39" fill="#FFFFFF" d="M207.681,58.297c12.765-3.132,19.775-3.604,19.903-9.307
		c0.221-9.549-27.023-20.622-51.97-18.617c25.416,1.699,40.663,11.484,40.748,18.303C216.409,52.991,212.673,56.796,207.681,58.297"
		/>
	<path id="path41" fill="#FFFFFF" d="M215.591,269.369c19.155-7.534,37.564-21.926,47.746-43.482
		c2.939-6.229-5.558-9.413-7.957-2.097C249.419,239.116,237.169,257.111,215.591,269.369"/>
	<path id="path43" fill="#A21E21" d="M312.059,204.605h2.616c1.42,0,3.216,0.258,3.216,1.938c0,1.906-1.312,2.164-3.063,2.164h-2.77
		V204.605 M308.96,217.823h3.099v-6.683h1.944l3.809,6.683h3.252l-4.185-6.831c2.314-0.193,4.105-1.311,4.105-4.185
		c0-3.4-2.203-4.638-6.12-4.638h-5.906v15.653H308.96z M300.183,210.016c0,8.514,6.759,14.008,14.339,14.008
		c7.588,0,14.348-5.494,14.348-14.008c0-8.479-6.76-13.934-14.348-13.934C306.941,196.083,300.183,201.537,300.183,210.016z
		 M303.991,210.016c0-6.351,4.663-10.946,10.53-10.946c5.796,0,10.535,4.596,10.535,10.946c0,6.391-4.739,11.02-10.535,11.02
		C308.656,221.035,303.991,216.406,303.991,210.016z"/>
</g>
<g id="Klub">
	<path id="Lower_path" display="none" fill="none" d="M55.04,272.986c98.435-42.893,138.385-57.486,246.911-76.904"/>
	<path id="Upper_path" display="none" fill="none" d="M39.667,188.667c99.667-41,154.475-56.916,263-76.333"/>
	<g>
		<path fill="#A21E21" d="M165.038,228.766c-9.888,3.002-19.674,6.349-29.287,10.145c-7.508,2.891-11.136,0.604-11.162-6.512
			c-0.081-19.886-0.193-39.772-0.292-59.658c-0.035-6.88,3.609-11.644,11.087-14.326c7.479-2.683,11.322-0.383,11.344,6.5
			c0.054,16.846,0.121,33.692,0.172,50.539c7.118-2.438,10.763-3.573,18.068-5.73c4.869-1.438,7.338,0.984,7.37,7.297
			S169.92,227.27,165.038,228.766z"/>
		<path fill="#A21E21" d="M237.17,188.36c0.101,7.215-3.151,13.358-9.563,18.493c-6.414,5.137-13.23,8.8-21.137,10.915
			c-7.905,2.115-15.178,2.222-21.601,0.305c-6.425-1.917-9.672-6.625-9.714-14.084c-0.095-15.786-0.199-31.572-0.28-47.358
			c-0.036-6.905,3.823-11.524,11.539-13.51c7.714-1.986,11.566,0.676,11.618,7.613c0.112,14.596,0.241,29.193,0.372,43.789
			c0.037,4.386,2.714,5.913,7.914,4.6c5.203-1.313,7.728-4.141,7.697-8.487c-0.108-14.552-0.206-29.104-0.301-43.656
			c-0.04-6.962,3.658-11.434,11.265-13.313c7.604-1.879,11.561,0.763,11.621,7.783C236.741,157.086,236.945,172.724,237.17,188.36z"
			/>
		<path fill="#A21E21" d="M302.152,171.014c0.662,14.726-8.971,25.531-23.258,28.386c-10.252,2.428-15.63,3.676-26.284,6.192
			c-8.138,1.922-12.227-0.446-12.326-7.041c-0.295-19.273-0.585-38.547-0.795-57.822c-0.067-7.031,3.802-11.697,11.66-13.786
			c9.574-2.544,14.402-3.869,23.878-6.485c11.695-4.012,23.771,0.4,23.532,14.155c-0.146,8.475-8.741,19.982-8.741,19.982
			C289.994,155.417,301.762,162.334,302.152,171.014z M277.219,144.98c-0.12-5.197-2.699-7.219-7.839-5.892
			c-2.468,0.637-3.709,0.956-6.19,1.591c0.115,6.304,0.185,9.38,0.327,15.453c2.587-0.634,3.878-0.953,6.446-1.587
			C274.958,153.313,277.339,150.178,277.219,144.98z M279.744,175.138c-0.184-5.527-3.102-7.644-8.907-6.253
			c-2.769,0.663-4.163,0.996-6.957,1.661c0.18,6.664,0.274,9.953,0.462,16.551c2.911-0.683,4.361-1.021,7.24-1.699
			C277.259,184.061,279.928,180.666,279.744,175.138z"/>
	</g>
	<path id="path21_1_" fill="#A21E21" d="M114.619,168.292c-6.298-3.013-11.703,0.347-13.998,4.062l-19.356,34.672l-0.034-27.952
		l-22.817,9.955l-0.072,79.049l16.074-7.098c0,0,3.155-0.942,5.059-4.093c1.751-2.903,1.686-7.773,1.686-7.773l0.02-25.065
		l17.964,20.077c3.944,4.314,11.192,6.529,17.587,1.089c5.783-4.918,4.887-13.304,1.661-17.059l-16.364-17.35
		c0,0,14.401-23.907,16.756-27.901C121.909,177.599,120.336,171.027,114.619,168.292"/>
</g>
<g id="Breakfast">
	<path fill="#A21E21" d="M102.808,139.646c2.133,3.394,3.197,5.038,5.317,8.214c0.784,1.181,1.173,2.601,1.164,4.251
		c-0.01,1.649-0.742,3.499-2.193,5.546c-1.451,2.046-2.781,3.282-3.99,3.752c-1.21,0.471-2.354-0.027-3.433-1.555
		c-3.474-4.853-5.215-7.453-8.702-12.976c-0.016,5.476-0.022,8.119-0.032,13.111c-0.008,4.283-1.8,6.945-5.374,8.379
		c-3.573,1.433-5.356,0.272-5.357-3.932c0.002-13.942,0.029-27.884,0.059-41.826c0.012-5.298,1.811-8.736,5.419-10.074
		c4.899-1.817,7.364-2.661,12.285-4.264c3.038-0.99,5.551,0.102,7.53,3.12c1.979,3.018,2.947,6.56,2.916,10.659
		C108.359,129.38,106.493,135.142,102.808,139.646z M91.058,122.756c-0.022,5.455-0.032,8.148-0.051,13.392
		c1.245-0.501,1.866-0.749,3.111-1.239c3.059-1.205,4.598-3.924,4.622-8.331c0.024-4.405-1.496-6.12-4.563-4.989
		C92.929,122.05,92.306,122.283,91.058,122.756z"/>
	<path fill="#A21E21" d="M114.113,157.192c-3.55,1.365-5.327,0.031-5.301-4.3c0.085-13.558,0.19-27.115,0.296-40.673
		c0.039-4.943,1.868-7.975,5.451-9.018c5.212-1.518,7.802-2.243,12.884-3.721c2.717-0.79,4.031,0.92,3.986,5.153
		c-0.046,4.231-1.406,6.794-4.122,7.686c-2.984,0.981-4.492,1.471-7.523,2.463c-0.031,3.192-0.047,4.785-0.077,7.942
		c2.599-0.903,3.892-1.35,6.458-2.243c2.722-0.946,4.042,0.711,3.998,4.907s-1.406,6.757-4.125,7.771
		c-2.565,0.957-3.858,1.435-6.453,2.4c-0.028,3.153-0.041,4.713-0.066,7.775c3.02-1.151,4.522-1.724,7.502-2.867
		c2.713-1.04,4.032,0.472,3.997,4.396c-0.035,3.924-1.39,6.339-4.101,7.392C121.847,154.225,119.276,155.206,114.113,157.192z"/>
	<path fill="#A21E21" d="M141.453,137.94c-0.401,1.658-0.6,2.483-0.999,4.124c-0.892,3.647-2.273,5.739-4.28,6.543
		c-2.007,0.806-3.455,0.524-4.318-0.868c-0.864-1.392-1.294-2.803-1.281-4.22c0.012-1.416,0.246-2.904,0.695-4.462
		c3.73-12.915,7.257-25.884,10.881-38.829c1.082-3.865,2.699-6.105,4.883-6.745c2.183-0.64,3.816,0.631,4.875,3.8
		c3.536,10.452,7.12,20.881,10.78,31.29c0.458,1.271,0.685,2.614,0.678,4.026c-0.006,1.414-0.454,3.112-1.341,5.094
		c-0.888,1.98-2.396,3.252-4.507,3.86c-2.11,0.608-3.6-0.573-4.479-3.641c-0.392-1.381-0.589-2.075-0.98-3.471
		C147.752,135.768,145.621,136.46,141.453,137.94z M149.048,123.331c-0.871-3.29-1.304-4.949-2.166-8.28
		c-0.921,3.902-1.381,5.855-2.298,9.737C146.357,124.193,147.25,123.901,149.048,123.331z"/>
	<path fill="#A21E21" d="M183.528,109.236c3.496,4.554,5.242,6.836,8.713,11.375c1.241,1.642,1.856,3.279,1.858,4.906
		s-0.538,3.267-1.63,4.91c-1.093,1.645-2.271,2.616-3.53,2.932s-2.573-0.366-3.937-2.056c-4.539-5.668-6.822-8.532-11.36-14.277
		c-0.02,5.548-0.027,8.316-0.046,13.767c-0.015,4.318-1.814,6.883-5.388,7.826c-3.573,0.942-5.338-0.66-5.316-4.961
		c0.067-12.663,0.134-25.326,0.201-37.988c0.022-4.395,1.794-7.014,5.336-7.894c3.542-0.88,5.312,0.826,5.298,5.173
		c-0.02,5.426-0.029,8.178-0.049,13.675c4.577-8.107,6.863-12.144,11.38-19.956c1.373-2.371,2.676-3.688,3.905-3.985
		c1.228-0.297,2.382,0.081,3.462,1.139c1.079,1.057,1.621,2.393,1.621,4.011c0,1.62-0.603,3.521-1.817,5.714
		C188.784,99.752,187.04,102.913,183.528,109.236z"/>
	<path fill="#A21E21" d="M198.878,130.843c-3.464,0.917-5.235-0.79-5.239-5.17c-0.013-12.553-0.019-25.106-0.027-37.659
		c-0.001-4.271,1.749-6.776,5.169-7.629c4.976-1.241,7.424-1.865,12.159-3.137c2.533-0.681,3.769,0.828,3.791,4.648
		c0.021,3.819-1.197,6.14-3.737,6.85c-2.792,0.779-4.214,1.164-7.094,1.93c0.009,2.866,0.017,4.312,0.026,7.216
		c2.477-0.667,3.699-1.003,6.111-1.681c2.559-0.719,3.814,0.891,3.841,4.898c0.028,4.007-1.205,6.404-3.773,7.133
		c-2.423,0.688-3.652,1.028-6.139,1.704c0.019,5.205,0.029,7.818,0.049,13.008C204.029,127.305,202.343,129.926,198.878,130.843z"/>
	<path fill="#A21E21" d="M225.335,114.609c-0.383,1.655-0.574,2.483-0.959,4.135c-0.858,3.676-2.314,5.751-4.372,6.276
		c-2.059,0.524-3.327,0.051-4.166-1.507c-0.837-1.558-1.266-3.058-1.277-4.498c-0.01-1.439,0.186-2.913,0.582-4.424
		c3.112-12.218,6.588-24.322,10.189-36.4c1.048-3.5,2.675-5.464,4.87-5.989c2.192-0.524,3.837,0.646,4.94,3.589
		c3.813,10.322,7.497,20.673,11.099,31.072c0.465,1.346,0.706,2.761,0.726,4.239c0.021,1.479-0.377,3.233-1.191,5.254
		c-0.815,2.021-2.243,3.243-4.285,3.679c-2.043,0.436-3.533-0.996-4.461-4.292c-0.415-1.484-0.624-2.224-1.039-3.702
		C231.751,113.023,229.623,113.532,225.335,114.609z M232.771,100.551c-0.938-3.327-1.404-4.979-2.337-8.238
		c-0.856,3.709-1.285,5.585-2.145,9.354C230.086,101.211,230.982,100.989,232.771,100.551z"/>
	<path fill="#A21E21" d="M260.425,116.315c-3.261,0.65-6.452,0.479-9.565-0.475c-3.114-0.954-4.712-3.45-4.766-7.506
		c-0.055-4.056,1.142-6.342,3.565-6.874c0.358-0.079,1.797,0.311,4.305,1.194c2.507,0.884,4.661,1.148,6.467,0.768
		s2.694-1.749,2.663-4.078c-0.019-1.526-0.652-2.663-1.904-3.41c-1.25-0.747-2.994-1.428-5.229-2.035
		c-2.235-0.607-3.643-1.118-4.215-1.547c-2.623-1.968-3.98-5.362-4.041-10.051c-0.059-4.689,0.996-8.598,3.124-11.781
		c2.088-3.121,4.57-4.896,7.449-5.44c2.879-0.543,5.415-0.619,7.518-0.181c3.959,0.824,5.617,2.955,4.881,6.396
		c-0.737,3.443-2.257,5.25-4.185,5.53c-0.179,0.026-1.212-0.247-3.075-0.836c-1.861-0.589-3.514-0.733-4.951-0.437
		s-2.145,1.42-2.12,3.406c0.015,1.268,0.638,2.243,1.866,2.919c1.228,0.675,2.954,1.337,5.174,1.991s3.627,1.227,4.227,1.692
		c2.617,2.036,3.981,5.63,4.041,10.948c0.062,5.317-1.018,9.882-3.189,13.519C266.357,113.557,263.686,115.665,260.425,116.315z"/>
	<path fill="#A21E21" d="M289.794,71.017c0.05,10.727,0.112,21.453,0.174,32.18c0.027,4.664-1.605,7.411-4.91,8.093
		c-3.307,0.683-4.986-1.356-5.031-6c-0.1-10.798-0.195-21.597-0.287-32.396c-2.032,0.386-3.051,0.582-5.084,0.976
		c-2.711,0.525-4.088-1.103-4.125-4.67c-0.037-3.569,1.306-5.473,4.024-5.935c8.135-1.383,12.196-2.025,20.356-3.202
		c2.728-0.393,4.092,0.906,4.09,4.202c-0.002,3.295-1.363,5.336-4.074,5.823C292.871,70.456,291.847,70.641,289.794,71.017z"/>
	<path id="path25_1_" fill="#A21E21" d="M66.563,157.611c-0.051-4.357-2.952-6.734-7.964-3.796l-0.01,14.006
		c0,0,1.62-0.838,2.81-1.484C64.328,164.75,66.631,161.894,66.563,157.611 M58.5,144.951c0.893-0.407,1.549-0.75,2.298-1.177
		c2.715-1.544,4.647-4.408,4.67-8.116c0.028-4.223-2.95-5.314-6.962-2.893L58.5,144.951z M79.718,155.61
		c0.164,11.054-6.656,16.937-15.539,21.233L46,184l0.333-57.333c0,0,11.071-3.821,14.812-5.41
		c10.632-4.518,16.883,0.928,16.883,9.222c0,5.534-2.028,10.238-6.431,14.372C75.933,145.695,79.635,149.854,79.718,155.61z"/>
</g>
</svg>
